<svg width="60" height="69" viewBox="0 0 60 69" fill="none" xmlns="http://www.w3.org/2000/svg">
<path d="M17.5392 24.3507C18.3328 24.2652 21.7886 24.3064 22.5816 24.3776C25.9971 24.6841 29.9625 26.0811 32.1943 28.7853C33.0847 29.8369 33.8078 31.2746 34.0476 32.6653C34.9336 37.8034 34.2597 43.2853 34.4287 48.4871C34.5289 51.5706 34.0865 53.9341 35.5589 56.8177C35.9829 57.6482 37.8403 60.3743 37.7916 61.001C37.0219 62.0879 32.0926 66.3305 30.854 66.6287C29.2138 66.3035 26.7546 62.6694 25.815 61.3244C24.8301 62.084 23.9827 63.022 23.0342 63.762C20.0308 66.1053 16.7516 67.0914 12.9559 66.9493C9.10744 66.8051 6.87041 65.9573 4.18528 63.1768C3.03652 61.5153 2.29063 59.6115 2.00622 57.6151C1.55003 54.2967 2.27285 50.2082 4.33836 47.5066C8.86628 41.5842 17.5904 41.6387 24.4646 40.7255C24.4929 38.0948 24.9586 34.2147 22.6257 32.5428C19.6036 30.3771 14.0203 31.4312 12.7475 35.1836C12.4129 35.7691 12.1692 37.4207 11.2183 37.2403C10.0666 37.0217 2.82349 37.3862 3.1185 35.5856C4.28676 28.457 10.7144 24.657 17.5392 24.3507ZM14.6057 59.2582C17.3347 61.3014 20.6423 59.6454 22.5026 57.2408C24.9542 54.0717 24.5832 49.8383 24.4386 46.0121C24.1933 46.0055 23.4428 45.9687 23.2364 45.9862C17.3745 46.2871 11.8005 47.9427 12.3728 54.9756C12.4912 56.4311 12.7474 57.6409 13.8857 58.6588C14.1201 58.8651 14.3602 59.065 14.6057 59.2582Z" fill="white"/>
<path d="M43.689 25.35C47.1923 25.3769 50.6956 25.3768 54.1989 25.3496C54.0397 27.0109 53.6935 29.1532 53.6789 30.7785C53.5954 40.0568 53.5914 49.3512 53.6975 58.6293C53.7174 60.3575 54.1021 62.2524 54.1644 64.0393C50.7274 64.1083 47.2162 63.9733 43.7885 64.0975C44.4942 57.3651 44.323 52.0903 44.331 45.2997C44.3403 38.1735 44.4756 32.4155 43.689 25.35Z" fill="white"/>
<path d="M47.438 1.86523H50.5752C50.9002 2.07024 51.1589 2.07939 51.529 2.13854C54.5309 2.61933 57.0871 5.11176 58.1098 7.96375C58.9508 10.3494 58.8076 12.9695 57.7119 15.2506C55.4051 20.0188 49.4716 21.8871 44.7346 19.5586C42.4291 18.4291 40.6675 16.436 39.8384 14.0168C38.1829 9.08487 41.0137 3.00027 46.4471 2.14187C46.7681 2.09125 47.1276 1.96786 47.438 1.86523ZM49.8656 16.3937C52.7932 15.8981 54.771 13.144 54.2908 10.2284C53.8106 7.31278 51.0541 5.32916 48.1199 5.78767C45.1577 6.25034 43.1414 9.02198 43.6256 11.964C44.1098 14.9061 46.9101 16.8939 49.8656 16.3937Z" fill="white"/>
</svg>
