<svg width="93" height="39" viewBox="0 0 93 39" fill="none" xmlns="http://www.w3.org/2000/svg">
<path d="M46.1823 6.39481L46.2831 6.49552L46.3838 6.39481C49.0656 3.87717 51.5207 2.20294 54.5928 0.805646L55.235 0.516117L36.9786 0.604234L37.7592 0.893763C41.1964 2.16517 43.3998 3.61282 46.1823 6.39481ZM1.27165 10.1335C0.188859 10.4356 0 11.0776 0 12.2357V19.2851C0 20.1286 0.579168 20.7202 1.39756 20.7202H3.17283V19.4362C3.17283 15.4835 4.19267 11.7952 6.04349 9.05093L6.28271 8.71104L1.27165 10.1335ZM91.0552 10.1335L86.4219 8.72363L86.6737 9.0761C88.7637 12.0847 89.3933 14.9296 88.9022 19.2348L88.726 20.7202H90.9293C91.7477 20.7202 92.3269 20.1286 92.3269 19.2851V12.2357C92.3269 11.0902 92.138 10.486 91.0552 10.1335ZM83.3498 6.73469C80.605 3.7387 77.0293 1.87564 73.2773 1.51059L72.2826 1.40988L73.2018 1.80011C77.9484 3.80164 81.1338 10.3475 81.1338 18.0767C81.1338 24.3204 79.0438 28.827 74.9141 31.4705L74.2971 31.8608L75.0148 31.7475C78.3891 31.2062 81.5241 29.469 83.866 26.8758C86.2834 24.1945 87.6054 20.8083 87.6054 17.3214C87.618 13.5197 86.1071 9.75587 83.3498 6.73469ZM78.5402 10.9895C77.4952 7.67881 75.5436 4.89682 72.8996 2.93305C70.3185 1.00706 67.259 0 64.0736 0C58.5967 0 52.0999 3.02117 47.5043 7.6914L47.4036 7.7921L47.5043 7.89281C49.8084 10.3475 51.5585 13.5449 53.0064 17.9256L53.2205 18.5676L53.3086 17.9004C54.0515 11.9714 59.3899 5.82834 67.0575 5.82834C71.3509 5.82834 75.7577 7.9054 78.2758 11.1154L78.792 11.77L78.5402 10.9895ZM42.7199 29.5949C41.2846 27.6185 40.0255 24.8617 39.1694 21.8028L38.9427 20.9846L38.8798 21.828C38.4265 27.6311 33.0503 33.6987 24.8664 33.8119L23.6452 33.8245L24.8287 34.1015C26.3395 34.4539 27.8252 34.6302 29.3865 34.6302C34.2464 34.6302 38.7287 32.9937 42.7073 29.7711L42.8206 29.683L42.7199 29.5949ZM84.8984 27.971C81.8515 31.7223 75.5184 34.2399 69.1602 34.2399C65.0179 34.2399 61.6688 33.1448 58.9114 30.8915C56.1919 28.6634 54.0389 25.2897 52.3517 20.5943L51.143 17.2836C47.2022 6.48293 37.8977 0.0377646 26.2514 0.0377646C20.0065 0.0377646 14.6177 1.90082 10.6894 5.42552C6.74856 8.95022 4.67111 13.7841 4.67111 19.3984C4.67111 24.7988 6.72338 29.7208 10.4502 33.2706C14.177 36.8079 19.3518 38.7591 25.0175 38.7591C30.3056 38.7591 35.0774 37.2359 38.4517 34.4665L39.3834 33.6987L38.288 34.2148C35.3418 35.5869 32.4208 36.2289 29.0843 36.2289C23.7962 36.2289 19.3014 34.6176 16.0782 31.5587C12.855 28.4997 11.1553 24.2449 11.1553 19.2474C11.1553 14.5897 12.7417 10.3727 15.5998 7.35152C18.4956 4.30517 22.6001 2.63094 27.1579 2.63094C31.6024 2.63094 35.1907 3.67576 38.1118 5.81575C41.3475 8.18234 43.9286 11.9588 45.9935 17.3717L47.8065 22.0797C52.0621 33.1448 58.8611 38.7465 67.9893 38.7465C71.7916 38.7465 75.3799 37.7898 78.3891 35.9897C81.5241 34.1141 83.866 31.3824 85.1628 28.0969L85.5154 27.1905L84.8984 27.971ZM58.5589 37.5632C53.2582 35.4736 49.2922 30.4131 45.7165 21.1482L44.0923 16.8934C40.8061 8.18234 35.5055 4.29258 26.9313 4.29258C22.9904 4.29258 19.4273 5.71505 16.6574 8.40893C18.8607 6.60881 22.0461 5.84093 25.2693 5.84093C28.5303 5.84093 31.3884 6.84799 33.768 8.84951C36.2609 10.9392 38.2377 14.1366 39.6604 18.3536L41.0957 22.5707C43.979 31.0803 50.1484 36.5058 58.4708 37.8528L59.8557 38.0793L58.5589 37.5632Z" fill="#F0F6FC"/>
</svg>
